<?xml version="1.0" encoding="utf-8"?>
<!-- Generator: Adobe Illustrator 20.0.0, SVG Export Plug-In . SVG Version: 6.00 Build 0)  -->
<svg version="1.1" id="Layer_1" xmlns="http://www.w3.org/2000/svg" xmlns:xlink="http://www.w3.org/1999/xlink" x="0px" y="0px"
	 viewBox="0 0 22 66" style="enable-background:new 0 0 22 66;" xml:space="preserve">
<style type="text/css">
	.st0{fill:#FFFFFF;}
	.st1{display:none;}
	.st2{display:inline;}
	.st3{fill:#8A0917;}
</style>
<rect class="st0" width="22" height="22"/>
<rect y="22" class="st0" width="22" height="22"/>
<g id="Layer_3" class="st1">
	<g id="KV5jGS_1_" class="st2">
	</g>
</g>
<g>
	<path d="M15.7,32.2l-3.6,7.6c-0.2,0.4-0.7,0.7-1.1,0.7s-0.9-0.3-1.1-0.7l-3.6-7.6C6.1,31.7,6,31.1,6,30.5c0-2.8,2.2-5,5-5
		s5,2.2,5,5C16,31.1,15.9,31.7,15.7,32.2z M11,28c-1.4,0-2.5,1.1-2.5,2.5S9.6,33,11,33s2.5-1.1,2.5-2.5S12.4,28,11,28z"/>
</g>
<rect y="44" class="st0" width="22" height="22"/>
<g>
	<path class="st3" d="M15.7,54.2l-3.6,7.6c-0.2,0.4-0.7,0.7-1.1,0.7s-0.9-0.3-1.1-0.7l-3.6-7.6C6.1,53.7,6,53.1,6,52.5
		c0-2.8,2.2-5,5-5s5,2.2,5,5C16,53.1,15.9,53.7,15.7,54.2z M11,50c-1.4,0-2.5,1.1-2.5,2.5S9.6,55,11,55s2.5-1.1,2.5-2.5
		S12.4,50,11,50z"/>
</g>
</svg>
