<?xml version="1.0" encoding="utf-8"?>
<!-- Generator: Adobe Illustrator 20.0.0, SVG Export Plug-In . SVG Version: 6.00 Build 0)  -->
<svg version="1.1" id="Layer_1" xmlns="http://www.w3.org/2000/svg" xmlns:xlink="http://www.w3.org/1999/xlink" x="0px" y="0px"
	 viewBox="0 0 22 66" style="enable-background:new 0 0 22 66;" xml:space="preserve">
<style type="text/css">
	.st0{fill:#FFFFFF;}
	.st1{display:none;}
	.st2{display:inline;}
	.st3{fill:#8A0917;}
</style>
<rect class="st0" width="22" height="22"/>
<rect y="22" class="st0" width="22" height="22"/>
<g id="Layer_3" class="st1">
	<g id="KV5jGS_1_" class="st2">
	</g>
</g>
<g>
	<path d="M5.1,30.3c-0.9,0-1.6-0.7-1.6-1.6s0.7-1.6,1.6-1.6s1.6,0.7,1.6,1.6C6.7,29.6,6,30.3,5.1,30.3z M5.1,34.6
		c-0.9,0-1.6-0.7-1.6-1.6s0.7-1.6,1.6-1.6s1.6,0.7,1.6,1.6S6,34.6,5.1,34.6z M5.1,38.9c-0.9,0-1.6-0.7-1.6-1.6s0.7-1.6,1.6-1.6
		s1.6,0.7,1.6,1.6S6,38.9,5.1,38.9z M18.5,29.5c0,0.1-0.1,0.3-0.3,0.3H8.1c-0.1,0-0.3-0.1-0.3-0.3v-1.6c0-0.1,0.1-0.3,0.3-0.3h10.2
		c0.1,0,0.3,0.1,0.3,0.3L18.5,29.5L18.5,29.5z M18.5,33.8c0,0.1-0.1,0.3-0.3,0.3H8.1c-0.1,0-0.3-0.1-0.3-0.3v-1.6
		c0-0.1,0.1-0.3,0.3-0.3h10.2c0.1,0,0.3,0.1,0.3,0.3L18.5,33.8L18.5,33.8z M18.5,38.1c0,0.1-0.1,0.3-0.3,0.3H8.1
		c-0.1,0-0.3-0.1-0.3-0.3v-1.6c0-0.1,0.1-0.3,0.3-0.3h10.2c0.1,0,0.3,0.1,0.3,0.3L18.5,38.1L18.5,38.1z"/>
</g>
<rect y="44" class="st0" width="22" height="22"/>
<g>
	<path class="st3" d="M5.1,52.3c-0.9,0-1.6-0.7-1.6-1.6c0-0.9,0.7-1.6,1.6-1.6s1.6,0.7,1.6,1.6S6,52.3,5.1,52.3z M5.1,56.6
		c-0.9,0-1.6-0.7-1.6-1.6s0.7-1.6,1.6-1.6s1.6,0.7,1.6,1.6S6,56.6,5.1,56.6z M5.1,60.9c-0.9,0-1.6-0.7-1.6-1.6s0.7-1.6,1.6-1.6
		s1.6,0.7,1.6,1.6S6,60.9,5.1,60.9z M18.5,51.5c0,0.1-0.1,0.3-0.3,0.3H8.1c-0.1,0-0.3-0.1-0.3-0.3v-1.6c0-0.1,0.1-0.3,0.3-0.3h10.2
		c0.1,0,0.3,0.1,0.3,0.3L18.5,51.5L18.5,51.5z M18.5,55.8c0,0.1-0.1,0.3-0.3,0.3H8.1c-0.1,0-0.3-0.1-0.3-0.3v-1.6
		c0-0.1,0.1-0.3,0.3-0.3h10.2c0.1,0,0.3,0.1,0.3,0.3L18.5,55.8L18.5,55.8z M18.5,60.1c0,0.1-0.1,0.3-0.3,0.3H8.1
		c-0.1,0-0.3-0.1-0.3-0.3v-1.6c0-0.1,0.1-0.3,0.3-0.3h10.2c0.1,0,0.3,0.1,0.3,0.3L18.5,60.1L18.5,60.1z"/>
</g>
</svg>
